<?xml version="1.0" encoding="UTF-8" standalone="no"?>
<svg width="1024px" height="350px" viewBox="0 0 1024 350" version="1.1" xmlns="http://www.w3.org/2000/svg" xmlns:xlink="http://www.w3.org/1999/xlink">
    <!-- Generator: Sketch 3.6.1 (26313) - http://www.bohemiancoding.com/sketch -->
    <title>Desktop</title>
    <desc>Created with Sketch.</desc>
    <defs></defs>
    <g id="Page-1" stroke="none" stroke-width="1" fill="none" fill-rule="evenodd">
        <g id="Desktop">
            <g id="a" transform="translate(34.000000, 27.000000)">
                <path d="M568.059,154.899 L493.059,284.804 L343.059,284.804 L268.059,154.899 L343.059,24.996 L493.059,24.996 L568.059,154.899 Z" id="Shape" fill="#F6F6F6"></path>
                <g id="Group" transform="translate(343.000000, 24.000000)" stroke="#454545" stroke-width="2">
                    <path d="M0.059,260.804 L0.059,257.804" id="Shape"></path>
                    <path d="M0.059,251.901 L0.059,6.947" id="Shape" stroke-dasharray="5.9025,5.9025"></path>
                    <path d="M0.059,3.996 L0.059,0.996" id="Shape"></path>
                </g>
                <g id="Group" transform="translate(418.000000, 154.000000)" stroke="#454545" stroke-width="2">
                    <path d="M0.059,0.899 L3.059,0.899" id="Shape"></path>
                    <path d="M8.818,0.899 L144.179,0.899" id="Shape" stroke-dasharray="5.76,5.76"></path>
                    <path d="M147.059,0.899 L150.059,0.899" id="Shape"></path>
                </g>
                <path d="M568.059,154.899 L493.059,284.803 L343.059,284.803 L268.059,154.899 L343.059,24.996 L493.059,24.996 L568.059,154.899 Z" id="Shape" stroke="#010101" stroke-width="2"></path>
                <path d="M422.301,150.657 C424.645,153 424.645,156.799 422.301,159.142 C419.959,161.486 416.16,161.486 413.817,159.142 C411.473,156.799 411.473,153 413.817,150.657 C416.161,148.314 419.959,148.313 422.301,150.657" id="Shape" fill="#FFFFFF"></path>
                <path d="M422.301,150.657 C424.645,153 424.645,156.799 422.301,159.142 C419.959,161.486 416.16,161.486 413.817,159.142 C411.473,156.799 411.473,153 413.817,150.657 C416.161,148.314 419.959,148.313 422.301,150.657" id="Shape" stroke="#010101" stroke-width="2"></path>
                <path d="M419.473,153.485 C420.254,154.266 420.254,155.532 419.473,156.313 C418.692,157.094 417.426,157.094 416.645,156.313 C415.864,155.532 415.864,154.266 416.645,153.485 C417.426,152.704 418.691,152.704 419.473,153.485" id="Shape" fill="#010101"></path>
                <path d="M572.301,150.657 C574.645,153 574.645,156.799 572.301,159.142 C569.959,161.486 566.16,161.486 563.817,159.142 C561.473,156.799 561.473,153 563.817,150.657 C566.161,148.314 569.959,148.313 572.301,150.657" id="Shape" fill="#FFFFFF"></path>
                <path d="M572.301,150.657 C574.645,153 574.645,156.799 572.301,159.142 C569.959,161.486 566.16,161.486 563.817,159.142 C561.473,156.799 561.473,153 563.817,150.657 C566.161,148.314 569.959,148.313 572.301,150.657" id="Shape" stroke="#010101" stroke-width="2"></path>
                <path d="M569.473,153.485 C570.254,154.266 570.254,155.532 569.473,156.313 C568.692,157.094 567.426,157.094 566.645,156.313 C565.864,155.532 565.864,154.266 566.645,153.485 C567.426,152.704 568.691,152.704 569.473,153.485" id="Shape" fill="#010101"></path>
                <path d="M497.301,280.561 C499.645,282.904 499.645,286.704 497.301,289.046 C494.959,291.389 491.16,291.389 488.817,289.046 C486.474,286.703 486.473,282.903 488.817,280.561 C491.161,278.219 494.959,278.218 497.301,280.561" id="Shape" fill="#FFFFFF"></path>
                <path d="M497.301,280.561 C499.645,282.904 499.645,286.704 497.301,289.046 C494.959,291.389 491.16,291.389 488.817,289.046 C486.474,286.703 486.473,282.903 488.817,280.561 C491.161,278.219 494.959,278.218 497.301,280.561" id="Shape" stroke="#010101" stroke-width="2"></path>
                <path d="M494.473,283.389 C495.254,284.17 495.254,285.437 494.473,286.218 C493.692,286.998 492.426,286.998 491.645,286.218 C490.864,285.437 490.864,284.17 491.645,283.389 C492.426,282.608 493.691,282.608 494.473,283.389" id="Shape" fill="#010101"></path>
                <path d="M347.302,280.561 C349.645,282.904 349.645,286.704 347.302,289.046 C344.959,291.388 341.16,291.389 338.817,289.046 C336.474,286.703 336.473,282.903 338.817,280.561 C341.161,278.219 344.959,278.218 347.302,280.561" id="Shape" fill="#FFFFFF"></path>
                <path d="M347.302,280.561 C349.645,282.904 349.645,286.704 347.302,289.046 C344.959,291.388 341.16,291.389 338.817,289.046 C336.474,286.703 336.473,282.903 338.817,280.561 C341.161,278.219 344.959,278.218 347.302,280.561" id="Shape" stroke="#010101" stroke-width="2"></path>
                <path d="M344.473,283.389 C345.254,284.17 345.254,285.437 344.473,286.218 C343.693,286.998 342.426,286.998 341.645,286.218 C340.864,285.437 340.864,284.17 341.645,283.389 C342.426,282.608 343.692,282.608 344.473,283.389" id="Shape" fill="#010101"></path>
                <path d="M272.302,150.657 C274.645,153 274.645,156.799 272.302,159.142 C269.959,161.486 266.16,161.486 263.817,159.142 C261.474,156.799 261.474,153 263.817,150.657 C266.16,148.314 269.958,148.313 272.302,150.657" id="Shape" fill="#FFFFFF"></path>
                <path d="M272.302,150.657 C274.645,153 274.645,156.799 272.302,159.142 C269.959,161.486 266.16,161.486 263.817,159.142 C261.474,156.799 261.474,153 263.817,150.657 C266.16,148.314 269.958,148.313 272.302,150.657" id="Shape" stroke="#010101" stroke-width="2"></path>
                <path d="M269.473,153.485 C270.254,154.266 270.254,155.532 269.473,156.313 C268.692,157.094 267.426,157.094 266.645,156.313 C265.864,155.532 265.864,154.266 266.645,153.485 C267.426,152.704 268.692,152.704 269.473,153.485" id="Shape" fill="#010101"></path>
                <path d="M347.302,20.753 C349.645,23.096 349.645,26.895 347.302,29.238 C344.959,31.581 341.16,31.581 338.817,29.238 C336.474,26.895 336.473,23.096 338.817,20.753 C341.161,18.41 344.959,18.41 347.302,20.753" id="Shape" fill="#FFFFFF"></path>
                <path d="M347.302,20.753 C349.645,23.096 349.645,26.895 347.302,29.238 C344.959,31.581 341.16,31.581 338.817,29.238 C336.474,26.895 336.473,23.096 338.817,20.753 C341.161,18.41 344.959,18.41 347.302,20.753" id="Shape" stroke="#010101" stroke-width="2"></path>
                <path d="M344.473,23.582 C345.254,24.363 345.254,25.629 344.473,26.41 C343.693,27.191 342.426,27.191 341.645,26.41 C340.864,25.629 340.864,24.363 341.645,23.582 C342.426,22.8 343.692,22.8 344.473,23.582" id="Shape" fill="#010101"></path>
                <path d="M497.301,20.753 C499.645,23.096 499.645,26.895 497.301,29.238 C494.959,31.581 491.16,31.581 488.817,29.238 C486.474,26.895 486.473,23.096 488.817,20.753 C491.161,18.41 494.959,18.41 497.301,20.753" id="Shape" fill="#FFFFFF"></path>
                <path d="M497.301,20.753 C499.645,23.096 499.645,26.895 497.301,29.238 C494.959,31.581 491.16,31.581 488.817,29.238 C486.474,26.895 486.473,23.096 488.817,20.753 C491.161,18.41 494.959,18.41 497.301,20.753" id="Shape" stroke="#010101" stroke-width="2"></path>
                <path d="M494.473,23.582 C495.254,24.363 495.254,25.629 494.473,26.41 C493.692,27.191 492.426,27.191 491.645,26.41 C490.864,25.629 490.864,24.363 491.645,23.582 C492.426,22.8 493.691,22.8 494.473,23.582" id="Shape" fill="#010101"></path>
                <text id="[cx,-cy]" fill="#000000" font-family="Helvetica" font-size="18" font-weight="normal">
                    <tspan x="390.0586" y="131.0586">[cx, cy]</tspan>
                </text>
                <text id="[cx-+-r,-cy]" fill="#454545" font-family="Helvetica" font-size="18" font-weight="normal">
                    <tspan x="591.0586" y="160.8994" fill="#000000">[cx + r, cy]</tspan>
                </text>
                <text id="[cx-+-a,-cy-+-b]" fill="#454545" font-family="Helvetica" font-size="18" font-weight="normal">
                    <tspan x="511.6719" y="301.2939" fill="#000000">[cx + a, cy + b]</tspan>
                </text>
                <g id="Group" transform="translate(0.496100, 0.731000)" font-size="18" font-family="Helvetica" fill="#454545" font-weight="normal">
                    <text id="a-=-r-cos(π/3)-=-r/2">
                        <tspan x="0" y="18" fill="#000000">a = r cos(π/3) = r/2</tspan>
                    </text>
                    <text id="b-=-r-sin(π/3)">
                        <tspan x="0" y="54" fill="#000000">b = r sin(π/3)</tspan>
                    </text>
                </g>
                <text id="[cx---a,-cy-+-b]" fill="#454545" font-family="Helvetica" font-size="18" font-weight="normal">
                    <tspan x="210.4961" y="298.8994" fill="#000000">[cx - a, cy + b]</tspan>
                </text>
                <text id="[cx---r,-cy]" fill="#454545" font-family="Helvetica" font-size="18" font-weight="normal">
                    <tspan x="166.126" y="160.8994" fill="#000000">[cx - r, cy]</tspan>
                </text>
                <text id="[cx---a,-cy---b]" fill="#454545" font-family="Helvetica" font-size="18" font-weight="normal">
                    <tspan x="210.4961" y="18.9956" fill="#000000">[cx - a, cy - b]</tspan>
                </text>
                <text id="[cx-+-a,-cy---b]" fill="#454545" font-family="Helvetica" font-size="18" font-weight="normal">
                    <tspan x="511.6719" y="18.9956" fill="#000000">[cx + a, cy - b]</tspan>
                </text>
                <text id="r" fill="#000000" font-family="Helvetica" font-size="18" font-weight="normal">
                    <tspan x="487.0586" y="177.0586">r</tspan>
                </text>
                <text id="2b" fill="#000000" font-family="Helvetica" font-size="18" font-weight="normal">
                    <tspan x="354.0591" y="230.7256">2b</tspan>
                </text>
            </g>
        </g>
    </g>
</svg>