<?xml version="1.0" encoding="utf-8"?>
<!-- Generator: Adobe Illustrator 16.0.4, SVG Export Plug-In . SVG Version: 6.00 Build 0)  -->
<!DOCTYPE svg PUBLIC "-//W3C//DTD SVG 1.1//EN" "http://www.w3.org/Graphics/SVG/1.1/DTD/svg11.dtd">
<svg version="1.1" id="Layer_1" xmlns="http://www.w3.org/2000/svg" xmlns:xlink="http://www.w3.org/1999/xlink" x="0px" y="0px"
	 width="761px" height="340px" viewBox="0 0 761 340" enable-background="new 0 0 761 340" xml:space="preserve">
<polygon fill="#F6F6F6" points="584.059,171.899 509.059,301.804 359.059,301.804 284.059,171.899 359.059,41.996 509.059,41.996 
	"/>
<g>
	<g>
		
			<line fill="none" stroke="#454545" stroke-width="2" stroke-miterlimit="10" x1="359.059" y1="301.804" x2="359.059" y2="298.804"/>
		
			<line fill="none" stroke="#454545" stroke-width="2" stroke-miterlimit="10" stroke-dasharray="5.9025,5.9025" x1="359.059" y1="292.901" x2="359.059" y2="47.947"/>
		<line fill="none" stroke="#454545" stroke-width="2" stroke-miterlimit="10" x1="359.059" y1="44.996" x2="359.059" y2="41.996"/>
	</g>
</g>
<g>
	<g>
		
			<line fill="none" stroke="#454545" stroke-width="2" stroke-miterlimit="10" x1="434.059" y1="171.899" x2="437.059" y2="171.899"/>
		
			<line fill="none" stroke="#454545" stroke-width="2" stroke-miterlimit="10" stroke-dasharray="5.76,5.76" x1="442.818" y1="171.899" x2="578.179" y2="171.899"/>
		
			<line fill="none" stroke="#454545" stroke-width="2" stroke-miterlimit="10" x1="581.059" y1="171.899" x2="584.059" y2="171.899"/>
	</g>
</g>
<polygon fill="none" stroke="#010101" stroke-width="2" stroke-miterlimit="10" points="584.059,171.899 509.059,301.803 
	359.059,301.803 284.059,171.899 359.059,41.996 509.059,41.996 "/>
<path fill="#FFFFFF" d="M438.301,167.657c2.344,2.343,2.344,6.142,0,8.485c-2.342,2.344-6.141,2.344-8.484,0
	c-2.344-2.343-2.344-6.142,0-8.485S435.959,165.313,438.301,167.657"/>
<path fill="none" stroke="#010101" stroke-width="2" stroke-miterlimit="10" d="M438.301,167.657c2.344,2.343,2.344,6.142,0,8.485
	c-2.342,2.344-6.141,2.344-8.484,0c-2.344-2.343-2.344-6.142,0-8.485S435.959,165.313,438.301,167.657"/>
<path fill="#010101" d="M435.473,170.485c0.781,0.781,0.781,2.047,0,2.828s-2.047,0.781-2.828,0s-0.781-2.047,0-2.828
	C433.426,169.704,434.691,169.704,435.473,170.485"/>
<path fill="#FFFFFF" d="M588.301,167.657c2.344,2.343,2.344,6.142,0,8.485c-2.342,2.344-6.141,2.344-8.484,0
	c-2.344-2.343-2.344-6.142,0-8.485S585.959,165.313,588.301,167.657"/>
<path fill="none" stroke="#010101" stroke-width="2" stroke-miterlimit="10" d="M588.301,167.657c2.344,2.343,2.344,6.142,0,8.485
	c-2.342,2.344-6.141,2.344-8.484,0c-2.344-2.343-2.344-6.142,0-8.485S585.959,165.313,588.301,167.657"/>
<path fill="#010101" d="M585.473,170.485c0.781,0.781,0.781,2.047,0,2.828s-2.047,0.781-2.828,0s-0.781-2.047,0-2.828
	C583.426,169.704,584.691,169.704,585.473,170.485"/>
<path fill="#FFFFFF" d="M513.301,297.561c2.344,2.343,2.344,6.143,0,8.485c-2.342,2.343-6.141,2.343-8.484,0s-2.344-6.143,0-8.485
	S510.959,295.218,513.301,297.561"/>
<path fill="none" stroke="#010101" stroke-width="2" stroke-miterlimit="10" d="M513.301,297.561c2.344,2.343,2.344,6.143,0,8.485
	c-2.342,2.343-6.141,2.343-8.484,0s-2.344-6.143,0-8.485S510.959,295.218,513.301,297.561"/>
<path fill="#010101" d="M510.473,300.389c0.781,0.781,0.781,2.048,0,2.829c-0.781,0.78-2.047,0.78-2.828,0
	c-0.781-0.781-0.781-2.048,0-2.829C508.426,299.608,509.691,299.608,510.473,300.389"/>
<path fill="#FFFFFF" d="M363.302,297.561c2.343,2.343,2.343,6.143,0,8.485s-6.142,2.343-8.485,0s-2.344-6.143,0-8.485
	S360.959,295.218,363.302,297.561"/>
<path fill="none" stroke="#010101" stroke-width="2" stroke-miterlimit="10" d="M363.302,297.561c2.343,2.343,2.343,6.143,0,8.485
	s-6.142,2.343-8.485,0s-2.344-6.143,0-8.485S360.959,295.218,363.302,297.561"/>
<path fill="#010101" d="M360.473,300.389c0.781,0.781,0.781,2.048,0,2.829c-0.78,0.78-2.047,0.78-2.828,0
	c-0.781-0.781-0.781-2.048,0-2.829C358.426,299.608,359.692,299.608,360.473,300.389"/>
<path fill="#FFFFFF" d="M288.302,167.657c2.343,2.343,2.343,6.142,0,8.485c-2.343,2.344-6.142,2.344-8.485,0
	c-2.343-2.343-2.343-6.142,0-8.485S285.958,165.313,288.302,167.657"/>
<path fill="none" stroke="#010101" stroke-width="2" stroke-miterlimit="10" d="M288.302,167.657c2.343,2.343,2.343,6.142,0,8.485
	c-2.343,2.344-6.142,2.344-8.485,0c-2.343-2.343-2.343-6.142,0-8.485S285.958,165.313,288.302,167.657"/>
<path fill="#010101" d="M285.473,170.485c0.781,0.781,0.781,2.047,0,2.828c-0.781,0.781-2.047,0.781-2.828,0
	c-0.781-0.781-0.781-2.047,0-2.828C283.426,169.704,284.692,169.704,285.473,170.485"/>
<path fill="#FFFFFF" d="M363.302,37.753c2.343,2.343,2.343,6.142,0,8.485s-6.142,2.343-8.485,0s-2.344-6.142,0-8.485
	S360.959,35.41,363.302,37.753"/>
<path fill="none" stroke="#010101" stroke-width="2" stroke-miterlimit="10" d="M363.302,37.753c2.343,2.343,2.343,6.142,0,8.485
	s-6.142,2.343-8.485,0s-2.344-6.142,0-8.485S360.959,35.41,363.302,37.753"/>
<path fill="#010101" d="M360.473,40.582c0.781,0.781,0.781,2.047,0,2.828c-0.78,0.781-2.047,0.781-2.828,0
	c-0.781-0.781-0.781-2.047,0-2.828C358.426,39.8,359.692,39.8,360.473,40.582"/>
<path fill="#FFFFFF" d="M513.301,37.753c2.344,2.343,2.344,6.142,0,8.485c-2.342,2.343-6.141,2.343-8.484,0s-2.344-6.142,0-8.485
	S510.959,35.41,513.301,37.753"/>
<path fill="none" stroke="#010101" stroke-width="2" stroke-miterlimit="10" d="M513.301,37.753c2.344,2.343,2.344,6.142,0,8.485
	c-2.342,2.343-6.141,2.343-8.484,0s-2.344-6.142,0-8.485S510.959,35.41,513.301,37.753"/>
<path fill="#010101" d="M510.473,40.582c0.781,0.781,0.781,2.047,0,2.828c-0.781,0.781-2.047,0.781-2.828,0
	c-0.781-0.781-0.781-2.047,0-2.828C508.426,39.8,509.691,39.8,510.473,40.582"/>
<text transform="matrix(1 0 0 1 406.0586 148.0586)" font-family="'HelveticaNeue'" font-size="18">[cx, cy]</text>
<text transform="matrix(1 0 0 1 607.0586 177.8994)" fill="#454545" font-family="'HelveticaNeue'" font-size="18">[cx + r, cy]</text>
<text transform="matrix(1 0 0 1 527.6719 318.2939)" fill="#454545" font-family="'HelveticaNeue'" font-size="18">[cx + a, cy + b]</text>
<text transform="matrix(1 0 0 1 16.4961 35.731)"><tspan x="0" y="0" fill="#454545" font-family="'HelveticaNeue'" font-size="18">a = r cos(π/3) = r/2</tspan><tspan x="0" y="36" fill="#454545" font-family="'HelveticaNeue'" font-size="18">b = r sin(π/3)</tspan></text>
<text transform="matrix(1 0 0 1 226.4961 315.8994)" fill="#454545" font-family="'HelveticaNeue'" font-size="18">[cx - a, cy + b]</text>
<text transform="matrix(1 0 0 1 182.126 177.8994)" fill="#454545" font-family="'HelveticaNeue'" font-size="18">[cx - r, cy]</text>
<text transform="matrix(1 0 0 1 226.4961 35.9956)" fill="#454545" font-family="'HelveticaNeue'" font-size="18">[cx - a, cy - b]</text>
<text transform="matrix(1 0 0 1 527.6719 35.9956)" fill="#454545" font-family="'HelveticaNeue'" font-size="18">[cx + a, cy - b]</text>
<text transform="matrix(1 0 0 1 503.0586 194.0586)" font-family="'HelveticaNeue'" font-size="18">r</text>
<text transform="matrix(1 0 0 1 370.0591 247.7256)" font-family="'HelveticaNeue'" font-size="18">2b</text>
</svg>
