<?xml version="1.0" encoding="utf-8"?>
<!-- Generator: Adobe Illustrator 16.0.4, SVG Export Plug-In . SVG Version: 6.00 Build 0)  -->
<!DOCTYPE svg PUBLIC "-//W3C//DTD SVG 1.1//EN" "http://www.w3.org/Graphics/SVG/1.1/DTD/svg11.dtd">
<svg version="1.1" id="Layer_1" xmlns="http://www.w3.org/2000/svg" xmlns:xlink="http://www.w3.org/1999/xlink" x="0px" y="0px"
	 width="750px" height="279.808px" viewBox="0 0 750 279.808" enable-background="new 0 0 750 279.808" xml:space="preserve">
<polygon fill="#F5F5F5" points="210,96.603 160,183.205 60,183.205 10,96.603 60,10 160,10 "/>
<polygon fill="none" stroke="#222222" stroke-width="2" stroke-miterlimit="10" points="210,96.603 160,183.205 60,183.205 
	10,96.603 60,10 160,10 "/>
<polygon fill="#F5F5F5" points="360,183.205 310,269.808 210,269.808 160,183.205 210,96.603 310,96.603 "/>
<polygon fill="none" stroke="#222222" stroke-width="2" stroke-miterlimit="10" points="360,183.205 310,269.808 210,269.808 
	160,183.205 210,96.603 310,96.603 "/>
<line fill="#F5F5F5" x1="10" y1="10" x2="10" y2="269.808"/>
<line opacity="0.1" fill="none" stroke="#000000" stroke-width="2" stroke-miterlimit="10" x1="10" y1="10" x2="10" y2="269.808"/>
<line fill="#F5F5F5" x1="60" y1="10" x2="60" y2="269.808"/>
<line opacity="0.1" fill="none" stroke="#000000" stroke-width="2" stroke-miterlimit="10" x1="60" y1="10" x2="60" y2="269.808"/>
<line fill="#F5F5F5" x1="110" y1="10" x2="110" y2="269.808"/>
<line opacity="0.1" fill="none" stroke="#000000" stroke-width="2" stroke-miterlimit="10" x1="110" y1="10" x2="110" y2="269.808"/>
<line fill="#F5F5F5" x1="160" y1="10" x2="160" y2="269.808"/>
<line opacity="0.1" fill="none" stroke="#000000" stroke-width="2" stroke-miterlimit="10" x1="160" y1="10" x2="160" y2="269.808"/>
<line fill="#F5F5F5" x1="210" y1="10" x2="210" y2="269.808"/>
<line opacity="0.1" fill="none" stroke="#000000" stroke-width="2" stroke-miterlimit="10" x1="210" y1="10" x2="210" y2="269.808"/>
<line fill="#F5F5F5" x1="260" y1="10" x2="260" y2="269.808"/>
<line opacity="0.1" fill="none" stroke="#000000" stroke-width="2" stroke-miterlimit="10" x1="260" y1="10" x2="260" y2="269.808"/>
<line fill="#F5F5F5" x1="310" y1="10" x2="310" y2="269.808"/>
<line opacity="0.1" fill="none" stroke="#000000" stroke-width="2" stroke-miterlimit="10" x1="310" y1="10" x2="310" y2="269.808"/>
<line fill="#F5F5F5" x1="360" y1="10" x2="360" y2="269.808"/>
<line opacity="0.1" fill="none" stroke="#000000" stroke-width="2" stroke-miterlimit="10" x1="360" y1="10" x2="360" y2="269.808"/>
<line fill="#F5F5F5" x1="10" y1="10" x2="360" y2="10"/>
<line opacity="0.1" fill="none" stroke="#000000" stroke-width="2" stroke-miterlimit="10" x1="10" y1="10" x2="360" y2="10"/>
<line fill="#F5F5F5" x1="10" y1="96.603" x2="360" y2="96.603"/>
<line opacity="0.1" fill="none" stroke="#000000" stroke-width="2" stroke-miterlimit="10" x1="10" y1="96.603" x2="360" y2="96.603"/>
<line fill="#F5F5F5" x1="10" y1="183.205" x2="360" y2="183.205"/>
<line opacity="0.1" fill="none" stroke="#000000" stroke-width="2" stroke-miterlimit="10" x1="10" y1="183.205" x2="360" y2="183.205"/>
<line fill="none" stroke="#222222" stroke-width="2" stroke-linecap="round" stroke-miterlimit="10" x1="366.081" y1="130.997" x2="260" y2="183.206"/>
<line fill="none" stroke="#222222" stroke-width="2" stroke-linecap="round" stroke-miterlimit="10" x1="215.667" y1="44.394" x2="109.586" y2="96.603"/>
<line fill="#F5F5F5" x1="10" y1="269.808" x2="360" y2="269.808"/>
<line opacity="0.1" fill="none" stroke="#000000" stroke-width="2" stroke-miterlimit="10" x1="10" y1="269.808" x2="360" y2="269.808"/>
<path fill="#FFFFFF" d="M114.243,92.36c2.343,2.343,2.343,6.142,0,8.485s-6.142,2.343-8.485,0s-2.343-6.142,0-8.485
	S111.899,90.017,114.243,92.36"/>
<path fill="none" stroke="#000000" stroke-width="2" stroke-miterlimit="10" d="M114.243,92.36c2.343,2.343,2.343,6.142,0,8.485
	s-6.142,2.343-8.485,0s-2.343-6.142,0-8.485S111.899,90.017,114.243,92.36"/>
<path d="M111.414,95.188c0.781,0.781,0.781,2.047,0,2.828c-0.781,0.781-2.047,0.781-2.828,0c-0.781-0.781-0.781-2.047,0-2.828
	C109.367,94.407,110.633,94.407,111.414,95.188"/>
<path fill="#FFFFFF" d="M264.243,178.963c2.343,2.343,2.343,6.142,0,8.484c-2.343,2.344-6.142,2.344-8.485,0
	c-2.343-2.343-2.343-6.142,0-8.484C258.101,176.619,261.899,176.619,264.243,178.963"/>
<path fill="none" stroke="#000000" stroke-width="2" stroke-miterlimit="10" d="M264.243,178.963c2.343,2.343,2.343,6.142,0,8.484
	c-2.343,2.344-6.142,2.344-8.485,0c-2.343-2.343-2.343-6.142,0-8.484C258.101,176.619,261.899,176.619,264.243,178.963"/>
<path d="M261.414,181.791c0.781,0.781,0.781,2.047,0,2.828c-0.781,0.781-2.047,0.781-2.828,0c-0.781-0.781-0.781-2.047,0-2.828
	C259.367,181.01,260.633,181.01,261.414,181.791"/>
<text transform="matrix(1 0 0 1 220.0591 43.8994)" fill="#444445" font-family="'HelveticaNeue'" font-size="18">[x, y]</text>
<text transform="matrix(1 0 0 1 372.3091 130.9966)" fill="#444445" font-family="'HelveticaNeue'" font-size="18">[x + a, y + b]</text>
</svg>
